<?xml version="1.0" encoding="UTF-8" standalone="no"?><!DOCTYPE svg PUBLIC "-//W3C//DTD SVG 1.1//EN" "http://www.w3.org/Graphics/SVG/1.1/DTD/svg11.dtd"><svg width="100%" height="100%" viewBox="0 0 920 200" version="1.1" xmlns="http://www.w3.org/2000/svg" xmlns:xlink="http://www.w3.org/1999/xlink" xml:space="preserve" xmlns:serif="http://www.serif.com/" style="fill-rule:evenodd;clip-rule:evenodd;stroke-linejoin:round;stroke-miterlimit:2;"><path d="M295.474,124.323c-0,-8.37 -2.245,-14.495 -6.735,-18.376c-4.489,-3.88 -10.386,-5.821 -17.691,-5.821c-4.87,0 -9.321,0.799 -13.354,2.397c-4.033,1.598 -7.571,3.538 -10.614,5.821l-0,82.179c-1.066,0.456 -2.549,0.875 -4.452,1.255c-1.902,0.381 -3.995,0.571 -6.277,0.571c-4.414,-0 -7.685,-0.837 -9.816,-2.511c-2.131,-1.674 -3.196,-4.49 -3.196,-8.446l0,-138.562c1.065,-0.305 2.587,-0.685 4.566,-1.142c1.978,-0.456 4.109,-0.685 6.391,-0.685c4.414,0 7.647,0.837 9.702,2.511c2.054,1.674 3.082,4.49 3.082,8.447l-0,36.067c3.5,-1.826 7.571,-3.462 12.212,-4.908c4.642,-1.446 9.854,-2.169 15.637,-2.169c13.24,0 23.931,3.501 32.072,10.501c8.142,7 12.213,17.653 12.213,31.958l-0,67.113c-1.065,0.456 -2.587,0.875 -4.565,1.255c-1.979,0.381 -4.033,0.571 -6.164,0.571c-4.565,-0 -7.875,-0.837 -9.93,-2.511c-2.054,-1.674 -3.081,-4.49 -3.081,-8.446l-0,-57.069Z" style="fill:#222;fill-rule:nonzero;"/><path d="M364.184,190.523c-1.065,0.456 -2.549,0.875 -4.451,1.255c-1.903,0.381 -4.071,0.571 -6.506,0.571c-4.414,-0 -7.685,-0.837 -9.816,-2.511c-2.131,-1.674 -3.196,-4.49 -3.196,-8.446l0,-96.56c1.218,-0.304 2.777,-0.685 4.68,-1.141c1.902,-0.457 4.071,-0.685 6.506,-0.685c4.413,-0 7.647,0.837 9.701,2.511c2.055,1.674 3.082,4.565 3.082,8.674l-0,96.332Z" style="fill:#222;"/><path d="M337.704,51.276c0,-3.957 1.37,-7.267 4.109,-9.93c2.739,-2.663 6.24,-3.995 10.501,-3.995c4.261,0 7.685,1.332 10.272,3.995c2.587,2.663 3.881,5.973 3.881,9.93c-0,3.957 -1.294,7.266 -3.881,9.93c-2.587,2.663 -6.011,3.994 -10.272,3.994c-4.261,0 -7.762,-1.331 -10.501,-3.994c-2.739,-2.664 -4.109,-5.973 -4.109,-9.93Z" style="fill:#e53935;"/><path d="M433.351,80.951c4.565,0 8.864,0.495 12.897,1.484c4.033,0.989 7.571,2.245 10.615,3.767l-0,-43.372c1.065,-0.305 2.587,-0.685 4.565,-1.142c1.979,-0.456 4.109,-0.685 6.392,-0.685c4.413,0 7.685,0.837 9.816,2.511c2.13,1.674 3.196,4.49 3.196,8.447l-0,119.615c-0,3.196 -0.685,5.821 -2.055,7.875c-1.369,2.055 -3.5,3.995 -6.391,5.821c-3.501,2.283 -8.256,4.338 -14.268,6.164c-6.011,1.826 -12.897,2.739 -20.658,2.739c-8.675,0 -16.588,-1.103 -23.741,-3.31c-7.152,-2.207 -13.24,-5.631 -18.262,-10.272c-5.022,-4.642 -8.902,-10.501 -11.642,-17.577c-2.739,-7.077 -4.109,-15.409 -4.109,-24.996c0,-9.892 1.408,-18.452 4.224,-25.681c2.815,-7.229 6.658,-13.164 11.527,-17.805c4.87,-4.642 10.539,-8.066 17.007,-10.273c6.467,-2.206 13.43,-3.31 20.887,-3.31Zm23.74,25.339c-2.587,-1.674 -5.631,-3.12 -9.131,-4.337c-3.5,-1.218 -7.381,-1.827 -11.642,-1.827c-4.565,0 -8.788,0.685 -12.669,2.055c-3.881,1.369 -7.267,3.614 -10.158,6.734c-2.892,3.12 -5.174,7.076 -6.848,11.87c-1.674,4.794 -2.511,10.615 -2.511,17.463c-0,12.783 3.005,22.066 9.017,27.849c6.011,5.783 14.038,8.675 24.082,8.675c4.566,-0 8.408,-0.495 11.528,-1.484c3.12,-0.989 5.897,-2.169 8.332,-3.538l0,-63.46Z" style="fill:#222;fill-rule:nonzero;"/><path d="M519.866,149.662c2.131,8.674 6.278,15.104 12.441,19.289c6.164,4.185 14.039,6.277 23.627,6.277c6.391,0 12.25,-0.989 17.577,-2.967c5.326,-1.979 9.587,-4.109 12.783,-6.392c4.261,2.435 6.392,5.859 6.392,10.272c-0,2.588 -0.99,4.984 -2.968,7.191c-1.978,2.207 -4.679,4.109 -8.104,5.707c-3.424,1.598 -7.457,2.853 -12.098,3.766c-4.642,0.913 -9.626,1.37 -14.952,1.37c-8.827,0 -16.854,-1.217 -24.083,-3.652c-7.229,-2.435 -13.43,-6.088 -18.604,-10.957c-5.174,-4.87 -9.169,-10.882 -11.985,-18.034c-2.815,-7.153 -4.223,-15.447 -4.223,-24.882c0,-9.131 1.37,-17.158 4.109,-24.083c2.74,-6.924 6.468,-12.707 11.186,-17.349c4.717,-4.641 10.272,-8.179 16.664,-10.614c6.391,-2.435 13.24,-3.653 20.544,-3.653c7.305,0 13.963,1.18 19.974,3.539c6.011,2.358 11.186,5.63 15.523,9.815c4.337,4.185 7.685,9.169 10.044,14.952c2.359,5.783 3.538,12.099 3.538,18.947c0,3.805 -0.913,6.582 -2.739,8.332c-1.826,1.75 -4.49,2.929 -7.99,3.538l-66.656,9.588Zm28.306,-50.22c-8.37,-0 -15.332,2.815 -20.887,8.446c-5.554,5.63 -8.484,13.696 -8.788,24.197l56.155,-7.99c-0.609,-6.848 -3.12,-12.669 -7.533,-17.463c-4.413,-4.794 -10.729,-7.19 -18.947,-7.19Z" style="fill:#222;fill-rule:nonzero;"/><path d="M712.758,137.563c-0,8.675 -1.294,16.512 -3.881,23.512c-2.587,7.001 -6.202,12.936 -10.843,17.806c-4.642,4.87 -10.31,8.636 -17.006,11.299c-6.697,2.663 -14.153,3.995 -22.371,3.995c-8.218,0 -15.675,-1.332 -22.371,-3.995c-6.696,-2.663 -12.365,-6.429 -17.006,-11.299c-4.642,-4.87 -8.256,-10.805 -10.843,-17.806c-2.588,-7 -3.881,-14.837 -3.881,-23.512c-0,-8.674 1.293,-16.512 3.881,-23.512c2.587,-7 6.239,-12.935 10.957,-17.805c4.717,-4.87 10.424,-8.637 17.12,-11.3c6.696,-2.663 14.077,-3.995 22.143,-3.995c8.065,0 15.446,1.332 22.142,3.995c6.696,2.663 12.403,6.468 17.121,11.414c4.717,4.946 8.37,10.881 10.957,17.805c2.587,6.924 3.881,14.724 3.881,23.398Zm-54.101,-37.437c-9.131,0 -16.36,3.272 -21.686,9.816c-5.327,6.544 -7.99,15.751 -7.99,27.621c0,11.87 2.587,21.039 7.761,27.507c5.175,6.468 12.479,9.702 21.915,9.702c9.435,-0 16.74,-3.234 21.914,-9.702c5.174,-6.468 7.761,-15.637 7.761,-27.507c0,-11.718 -2.625,-20.887 -7.875,-27.507c-5.25,-6.62 -12.517,-9.93 -21.8,-9.93Z" style="fill:#222;fill-rule:nonzero;"/><path d="M727.139,84.375c1.065,-0.304 2.587,-0.646 4.565,-1.027c1.979,-0.38 4.109,-0.57 6.392,-0.57c4.413,-0 7.647,0.837 9.702,2.511c2.054,1.674 3.081,4.565 3.081,8.674l0,56.383c0,8.827 2.321,15.105 6.963,18.833c4.641,3.729 11.071,5.593 19.289,5.593c5.326,-0 9.815,-0.533 13.468,-1.598c3.652,-1.065 6.544,-2.207 8.674,-3.424l0,-85.375c1.218,-0.304 2.778,-0.646 4.68,-1.027c1.902,-0.38 3.995,-0.57 6.277,-0.57c4.414,-0 7.686,0.837 9.816,2.511c2.131,1.674 3.196,4.565 3.196,8.674l-0,76.928c-0,3.348 -0.533,6.087 -1.598,8.218c-1.065,2.131 -3.196,4.185 -6.392,6.163c-3.956,2.283 -9.169,4.338 -15.636,6.164c-6.468,1.826 -14.039,2.739 -22.714,2.739c-15.674,0 -27.887,-3.462 -36.638,-10.386c-8.75,-6.925 -13.125,-17.92 -13.125,-32.986l-0,-66.428Z" style="fill:#222;fill-rule:nonzero;"/><path d="M867.299,159.706c-0,5.478 1.598,9.359 4.793,11.642c3.196,2.282 7.686,3.424 13.469,3.424c2.587,-0 5.326,-0.381 8.217,-1.142c2.892,-0.761 5.403,-1.674 7.533,-2.739c1.066,1.218 2.017,2.587 2.854,4.109c0.837,1.522 1.255,3.348 1.255,5.479c0,3.956 -2.016,7.228 -6.049,9.815c-4.033,2.587 -10.158,3.881 -18.376,3.881c-11.414,0 -20.506,-2.549 -27.279,-7.647c-6.772,-5.098 -10.158,-13.506 -10.158,-25.224l0,-106.604c1.066,-0.304 2.587,-0.685 4.566,-1.141c1.978,-0.457 4.109,-0.685 6.391,-0.685c4.414,-0 7.648,0.837 9.702,2.511c2.054,1.674 3.082,4.489 3.082,8.446l-0,22.599l35.382,-0c0.609,0.913 1.18,2.207 1.712,3.881c0.533,1.674 0.799,3.424 0.799,5.25c0,6.544 -2.815,9.816 -8.446,9.816l-29.447,-0l-0,54.329Z" style="fill:#222;fill-rule:nonzero;"/><path d="M98.936,192.349l-12.131,-0c-2.567,-0 -4.909,-2.074 -5.215,-4.626l-2,-16.637c-6.341,-1.686 -12.34,-4.186 -17.891,-7.394l-13.175,10.371c-2.015,1.581 -5.148,1.38 -6.961,-0.426l-17.13,-17.167c-1.82,-1.82 -1.999,-4.946 -0.425,-6.968l10.341,-13.176c-3.209,-5.55 -5.693,-11.549 -7.394,-17.875l-16.645,-2c-2.551,-0.313 -4.633,-2.648 -4.633,-5.215l0,-24.262c0,-2.574 2.089,-4.924 4.633,-5.223l16.638,-1.992c1.693,-6.349 4.185,-12.355 7.393,-17.905l-10.34,-13.161c-1.59,-2.029 -1.403,-5.163 0.402,-6.968l17.16,-17.167c1.813,-1.813 4.946,-2 6.961,-0.418l13.168,10.348c5.543,-3.201 11.549,-5.7 17.891,-7.394l1.999,-16.645c0.299,-2.544 2.649,-4.625 5.215,-4.625l24.263,-0c2.566,-0 4.916,2.081 5.222,4.625l1.992,16.645c6.334,1.686 12.333,4.178 17.876,7.386l13.176,-10.363c2.029,-1.581 5.162,-1.387 6.968,0.426l17.152,17.159c1.828,1.821 2.007,4.947 0.425,6.969l-10.348,13.153c3.208,5.565 5.7,11.564 7.401,17.913l16.645,1.999c2.559,0.306 4.633,2.641 4.626,5.223l-0,12.124l-46.622,-0c-0,-25.755 -20.875,-46.63 -46.63,-46.63c-25.754,0 -46.629,20.875 -46.629,46.63c-0,25.751 20.871,46.625 46.622,46.629l-0,46.637Z" style="fill:#222;fill-rule:nonzero;"/><path d="M132.687,150.073l-8.621,-0c-3.24,-0 -5.871,2.631 -5.871,5.871l-0,30.533c-0,3.241 2.631,5.872 5.871,5.872l62.257,-0c3.241,-0 5.872,-2.631 5.872,-5.872l-0,-30.533c-0,-3.24 -2.631,-5.871 -5.872,-5.871l-8.62,-0l-0,-11.156c-0,-12.423 -10.086,-22.509 -22.508,-22.509c-12.423,0 -22.508,10.086 -22.508,22.509l-0,11.156Zm33.272,-0l0,-11.156c0,-5.942 -4.823,-10.765 -10.764,-10.765c-5.941,-0 -10.765,4.823 -10.765,10.765l-0,11.156l21.529,-0Z" style="fill:#e53935;"/></svg>